# xmcd
#
# Track frame offsets:
#	150
#	10173
#	22226
#	32788
#	44831
#	55148
#	66589
#	78199
#	90478
#	102847
#	111918
#	125634
#	137754
#	149468
#	161002
#	173149
#	184503
#	195755
#	206481
#	218321
#
# Disc length: 3059 seconds
#
# Revision: 1
# Processed by: cddbd v1.5.2PL0 Copyright (c) Steve Scherf et al.
# Submitted via: audiograbber 1.83.01
#
DISCID=180bf114
DTITLE=Wells, Kitty - The Absolutely Essential  - CD3
DYEAR=2017
DGENRE=Country
TTITLE0=I Can't Stop Loving You
TTITLE1=Heartbreak U.S.A
TTITLE2=Your Wild Life's Gonna Get You Down
TTITLE3=Amigo's Guitar
TTITLE4=Dust On The Bible
TTITLE5=I Dreamed I Searched Heaven For You
TTITLE6=Left To Right
TTITLE7=Carmel By The Sea
TTITLE8=I Can't Tell My Heart That (with Roy Drusky)
TTITLE9=Sugartime
TTITLE10=I'll Be All Smiles Tonight
TTITLE11=Let Me Help You Forget
TTITLE12=The Other Cheek
TTITLE13=Fickle Fun
TTITLE14=There Must Be Another Way To Live
TTITLE15=Day Into Night
TTITLE16=Our Mansion Is A Prison Now
TTITLE17=Unloved, Unwanted
TTITLE18=We Missed You
TTITLE19=Will Your Lawyer Talk To God?
EXTD=
EXTT0=
EXTT1=
EXTT2=
EXTT3=
EXTT4=
EXTT5=
EXTT6=
EXTT7=
EXTT8=
EXTT9=
EXTT10=
EXTT11=
EXTT12=
EXTT13=
EXTT14=
EXTT15=
EXTT16=
EXTT17=
EXTT18=
EXTT19=
PLAYORDER=
